{"nbformat":4,"nbformat_minor":0,"metadata":{"colab":{"provenance":[{"file_id":"18nIqkBr68TkK8dHdarxTco6svHUJGggY","timestamp":1692900486247}]},"kernelspec":{"name":"python3","display_name":"Python 3"},"language_info":{"name":"python"}},"cells":[{"cell_type":"markdown","metadata":{"id":"AIGuIpRFAo18"},"source":["# Setup\n","\n","Clone repo, install dependencies and check PyTorch and GPU."]},{"cell_type":"code","metadata":{"id":"taGCP-gCgqX8","colab":{"base_uri":"https://localhost:8080/","height":1000},"executionInfo":{"status":"ok","timestamp":1692996114051,"user_tz":300,"elapsed":35858,"user":{"displayName":"Joshua W","userId":"11234259929288430202"}},"outputId":"ff0a4b44-d282-4445-fc92-e8c6647a34bb"},"source":["!pip install --upgrade pip setuptools wheel\n","!git clone https://github.com/mikel-brostrom/yolo_tracking.git  # clone repo\n","%cd yolo_tracking\n","!pip install -e .\n","\n","import torch\n","from IPython.display import Image, clear_output  # to display images\n","\n","clear_output()\n","print(f\"Setup complete. Using torch {torch.__version__} ({torch.cuda.get_device_properties(0).name if torch.cuda.is_available() else 'CPU'})\")"],"execution_count":1,"outputs":[{"output_type":"stream","name":"stdout","text":["Setup complete. Using torch 2.0.1+cu118 (CPU)\n"]}]},{"cell_type":"markdown","metadata":{"id":"1JQRVPMtA9Cr"},"source":["# Download data\n","\n","Get test video from repo and extract the first 10 seconds of it"]},{"cell_type":"code","metadata":{"id":"4Acf_nRZ7yS6","colab":{"base_uri":"https://localhost:8080/"},"executionInfo":{"status":"ok","timestamp":1692996121927,"user_tz":300,"elapsed":2325,"user":{"displayName":"Joshua W","userId":"11234259929288430202"}},"outputId":"61a0fab6-1f00-4b12-a7bf-c73babf81177"},"source":["# get the test video from the repo\n","!wget -nc https://github.com/mikel-brostrom/yolo_tracking/releases/download/v.2.0/test.avi\n","# extract 3 seconds worth of video frames of it\n","!yes | ffmpeg -ss 00:00:00 -i test.avi -t 00:00:10 -vf fps=30 out.avi"],"execution_count":2,"outputs":[{"output_type":"stream","name":"stdout","text":["--2023-08-25 20:42:00--  https://github.com/mikel-brostrom/yolo_tracking/releases/download/v.2.0/test.avi\n","Resolving github.com (github.com)... 140.82.113.3\n","Connecting to github.com (github.com)|140.82.113.3|:443... connected.\n","HTTP request sent, awaiting response... 302 Found\n","Location: https://objects.githubusercontent.com/github-production-release-asset-2e65be/275118967/1c170d00-d1c4-11eb-8c8f-9b0549ab49ff?X-Amz-Algorithm=AWS4-HMAC-SHA256&X-Amz-Credential=AKIAIWNJYAX4CSVEH53A%2F20230825%2Fus-east-1%2Fs3%2Faws4_request&X-Amz-Date=20230825T204200Z&X-Amz-Expires=300&X-Amz-Signature=f3b51590658a635b6bd3e63c0ab979ea7e46345a38f3feb73baa6cfabd58a9a7&X-Amz-SignedHeaders=host&actor_id=0&key_id=0&repo_id=275118967&response-content-disposition=attachment%3B%20filename%3Dtest.avi&response-content-type=application%2Foctet-stream [following]\n","--2023-08-25 20:42:00--  https://objects.githubusercontent.com/github-production-release-asset-2e65be/275118967/1c170d00-d1c4-11eb-8c8f-9b0549ab49ff?X-Amz-Algorithm=AWS4-HMAC-SHA256&X-Amz-Credential=AKIAIWNJYAX4CSVEH53A%2F20230825%2Fus-east-1%2Fs3%2Faws4_request&X-Amz-Date=20230825T204200Z&X-Amz-Expires=300&X-Amz-Signature=f3b51590658a635b6bd3e63c0ab979ea7e46345a38f3feb73baa6cfabd58a9a7&X-Amz-SignedHeaders=host&actor_id=0&key_id=0&repo_id=275118967&response-content-disposition=attachment%3B%20filename%3Dtest.avi&response-content-type=application%2Foctet-stream\n","Resolving objects.githubusercontent.com (objects.githubusercontent.com)... 185.199.108.133, 185.199.109.133, 185.199.110.133, ...\n","Connecting to objects.githubusercontent.com (objects.githubusercontent.com)|185.199.108.133|:443... connected.\n","HTTP request sent, awaiting response... 200 OK\n","Length: 5094187 (4.9M) [application/octet-stream]\n","Saving to: ‘test.avi’\n","\n","test.avi            100%[===================>]   4.86M  --.-KB/s    in 0.08s   \n","\n","2023-08-25 20:42:00 (58.4 MB/s) - ‘test.avi’ saved [5094187/5094187]\n","\n","ffmpeg version 4.4.2-0ubuntu0.22.04.1 Copyright (c) 2000-2021 the FFmpeg developers\n","  built with gcc 11 (Ubuntu 11.2.0-19ubuntu1)\n","  configuration: --prefix=/usr --extra-version=0ubuntu0.22.04.1 --toolchain=hardened --libdir=/usr/lib/x86_64-linux-gnu --incdir=/usr/include/x86_64-linux-gnu --arch=amd64 --enable-gpl --disable-stripping --enable-gnutls --enable-ladspa --enable-libaom --enable-libass --enable-libbluray --enable-libbs2b --enable-libcaca --enable-libcdio --enable-libcodec2 --enable-libdav1d --enable-libflite --enable-libfontconfig --enable-libfreetype --enable-libfribidi --enable-libgme --enable-libgsm --enable-libjack --enable-libmp3lame --enable-libmysofa --enable-libopenjpeg --enable-libopenmpt --enable-libopus --enable-libpulse --enable-librabbitmq --enable-librubberband --enable-libshine --enable-libsnappy --enable-libsoxr --enable-libspeex --enable-libsrt --enable-libssh --enable-libtheora --enable-libtwolame --enable-libvidstab --enable-libvorbis --enable-libvpx --enable-libwebp --enable-libx265 --enable-libxml2 --enable-libxvid --enable-libzimg --enable-libzmq --enable-libzvbi --enable-lv2 --enable-omx --enable-openal --enable-opencl --enable-opengl --enable-sdl2 --enable-pocketsphinx --enable-librsvg --enable-libmfx --enable-libdc1394 --enable-libdrm --enable-libiec61883 --enable-chromaprint --enable-frei0r --enable-libx264 --enable-shared\n","  libavutil      56. 70.100 / 56. 70.100\n","  libavcodec     58.134.100 / 58.134.100\n","  libavformat    58. 76.100 / 58. 76.100\n","  libavdevice    58. 13.100 / 58. 13.100\n","  libavfilter     7.110.100 /  7.110.100\n","  libswscale      5.  9.100 /  5.  9.100\n","  libswresample   3.  9.100 /  3.  9.100\n","  libpostproc    55.  9.100 / 55.  9.100\n","Input #0, matroska,webm, from 'test.avi':\n","  Metadata:\n","    COMPATIBLE_BRANDS: isomiso2mp41\n","    MAJOR_BRAND     : isom\n","    MINOR_VERSION   : 512\n","    ENCODER         : Lavf57.83.100\n","  Duration: 00:00:35.00, start: 0.000000, bitrate: 1164 kb/s\n","  Stream #0:0: Video: vp9 (Profile 0), yuv420p(tv, progressive), 960x540, SAR 1:1 DAR 16:9, 30 fps, 30 tbr, 1k tbn, 1k tbc (default)\n","    Metadata:\n","      HANDLER_NAME    : VideoHandler\n","      ENCODER         : Lavc57.107.100 libvpx-vp9\n","      DURATION        : 00:00:35.000000000\n","Stream mapping:\n","  Stream #0:0 -> #0:0 (vp9 (native) -> mpeg4 (native))\n","Press [q] to stop, [?] for help\n","Output #0, avi, to 'out.avi':\n","  Metadata:\n","    COMPATIBLE_BRANDS: isomiso2mp41\n","    MAJOR_BRAND     : isom\n","    MINOR_VERSION   : 512\n","    ISFT            : Lavf58.76.100\n","  Stream #0:0: Video: mpeg4 (FMP4 / 0x34504D46), yuv420p(tv, progressive), 960x540 [SAR 1:1 DAR 16:9], q=2-31, 200 kb/s, 30 fps, 30 tbn (default)\n","    Metadata:\n","      HANDLER_NAME    : VideoHandler\n","      DURATION        : 00:00:35.000000000\n","      encoder         : Lavc58.134.100 mpeg4\n","    Side data:\n","      cpb: bitrate max/min/avg: 0/0/200000 buffer size: 0 vbv_delay: N/A\n","frame=  300 fps=0.0 q=31.0 Lsize=     545kB time=00:00:10.00 bitrate= 446.1kbits/s speed=  13x    \n","video:532kB audio:0kB subtitle:0kB other streams:0kB global headers:0kB muxing overhead: 2.405506%\n"]}]},{"cell_type":"markdown","metadata":{"id":"oqIP5shr9HQd"},"source":["## Run inference on video\n","\n","The ``cv2.imshow()`` and ``cv.imshow()`` functions from the [opencv-python](https://github.com/skvark/opencv-python) package are incompatible with Jupyter notebook; see https://github.com/jupyter/notebook/issues/3935.\n","\n","Hence we chose to save it to file in this notebook. Locally you can use the ``--show-vid`` flag in order visualize the tracking in real-time"]},{"cell_type":"code","metadata":{"id":"4yEraJfKhBku","colab":{"base_uri":"https://localhost:8080/"},"executionInfo":{"status":"ok","timestamp":1692996252928,"user_tz":300,"elapsed":117236,"user":{"displayName":"Joshua W","userId":"11234259929288430202"}},"outputId":"06224e32-d554-4124-f65d-635e489e7c3a"},"source":["!python examples/track.py --yolo-model yolov8n.pt --reid-model osnet_x0_25_msmt17.pt --source out.avi --save --conf 0.2"],"execution_count":3,"outputs":[{"output_type":"stream","name":"stdout","text":["\u001b[32m2023-08-25 20:42:20.732\u001b[0m | \u001b[31m\u001b[1mERROR   \u001b[0m | \u001b[36mboxmot.utils.checks\u001b[0m:\u001b[36mcheck_packages\u001b[0m:\u001b[36m26\u001b[0m - \u001b[31m\u001b[1mThe 'ultralytics@ git+https://github.com/mikel-brostrom/ultralytics.git' distribution was not found and is required by the application\u001b[0m\n","\u001b[32m2023-08-25 20:42:20.733\u001b[0m | \u001b[33m\u001b[1mWARNING \u001b[0m | \u001b[36mboxmot.utils.checks\u001b[0m:\u001b[36mcheck_packages\u001b[0m:\u001b[36m29\u001b[0m - \u001b[33m\u001b[1m\n","Missing packages: \"ultralytics @ git+https://github.com/mikel-brostrom/ultralytics.git\" \n","Atempting installation...\u001b[0m\n","\u001b[32m2023-08-25 20:42:26.634\u001b[0m | \u001b[32m\u001b[1mSUCCESS \u001b[0m | \u001b[36mboxmot.utils.checks\u001b[0m:\u001b[36mcheck_packages\u001b[0m:\u001b[36m35\u001b[0m - \u001b[32m\u001b[1mAll the missing packages were installed successfully\u001b[0m\n","Downloading https://github.com/ultralytics/assets/releases/download/v0.0.0/yolov8n.pt to 'yolov8n.pt'...\n","100% 6.23M/6.23M [00:00<00:00, 76.4MB/s]\n","WARNING ⚠️ 'ultralytics.yolo.v8' is deprecated since '8.0.136' and will be removed in '8.1.0'. Please use 'ultralytics.models.yolo' instead.\n","WARNING ⚠️ 'ultralytics.yolo.engine' is deprecated since '8.0.136' and will be removed in '8.1.0'. Please use 'ultralytics.engine' instead.\n","\n","Downloading...\n","From: https://drive.google.com/uc?id=1sSwXSUlj4_tHZequ_iZ8w_Jh0VaRQMqF\n","To: /content/yolo_tracking/osnet_x0_25_msmt17.pt\n","100% 3.06M/3.06M [00:00<00:00, 147MB/s]\n","\u001b[32m2023-08-25 20:42:36.143\u001b[0m | \u001b[32m\u001b[1mSUCCESS \u001b[0m | \u001b[36mboxmot.appearance.reid_model_factory\u001b[0m:\u001b[36mload_pretrained_weights\u001b[0m:\u001b[36m207\u001b[0m - \u001b[32m\u001b[1mSuccessfully loaded pretrained weights from \"osnet_x0_25_msmt17.pt\"\u001b[0m\n","\u001b[32m2023-08-25 20:42:36.144\u001b[0m | \u001b[33m\u001b[1mWARNING \u001b[0m | \u001b[36mboxmot.appearance.reid_model_factory\u001b[0m:\u001b[36mload_pretrained_weights\u001b[0m:\u001b[36m211\u001b[0m - \u001b[33m\u001b[1mThe following layers are discarded due to unmatched keys or layer size: ('classifier.weight', 'classifier.bias')\u001b[0m\n","video 1/1 (1/300) /content/yolo_tracking/out.avi: 384x640 27 persons, 1 car, 1 motorcycle, 1 backpack, 224.2ms\n","left_dets.shape, left_trks.shape (2, 7) (1, 5)\n","video 1/1 (2/300) /content/yolo_tracking/out.avi: 384x640 26 persons, 1 car, 1 motorcycle, 1 backpack, 90.0ms\n","left_dets.shape, left_trks.shape (4, 7) (8, 5)\n","video 1/1 (3/300) /content/yolo_tracking/out.avi: 384x640 24 persons, 1 car, 1 motorcycle, 116.4ms\n","left_dets.shape, left_trks.shape (2, 7) (9, 5)\n","video 1/1 (4/300) /content/yolo_tracking/out.avi: 384x640 24 persons, 1 car, 1 motorcycle, 118.4ms\n","left_dets.shape, left_trks.shape (1, 7) (10, 5)\n","video 1/1 (5/300) /content/yolo_tracking/out.avi: 384x640 24 persons, 1 car, 1 motorcycle, 114.5ms\n","left_dets.shape, left_trks.shape (1, 7) (9, 5)\n","video 1/1 (6/300) /content/yolo_tracking/out.avi: 384x640 25 persons, 1 car, 1 motorcycle, 118.6ms\n","left_dets.shape, left_trks.shape (2, 7) (8, 5)\n","video 1/1 (7/300) /content/yolo_tracking/out.avi: 384x640 26 persons, 1 car, 1 motorcycle, 1 backpack, 120.9ms\n","left_dets.shape, left_trks.shape (2, 7) (8, 5)\n","video 1/1 (8/300) /content/yolo_tracking/out.avi: 384x640 25 persons, 1 car, 1 motorcycle, 1 backpack, 1 potted plant, 117.6ms\n","left_dets.shape, left_trks.shape (1, 7) (7, 5)\n","video 1/1 (9/300) /content/yolo_tracking/out.avi: 384x640 25 persons, 1 car, 1 motorcycle, 1 backpack, 1 potted plant, 116.5ms\n","left_dets.shape, left_trks.shape (3, 7) (9, 5)\n","video 1/1 (10/300) /content/yolo_tracking/out.avi: 384x640 25 persons, 1 car, 1 motorcycle, 1 backpack, 1 potted plant, 120.1ms\n","left_dets.shape, left_trks.shape (3, 7) (10, 5)\n","video 1/1 (11/300) /content/yolo_tracking/out.avi: 384x640 23 persons, 1 car, 1 motorcycle, 1 potted plant, 118.2ms\n","left_dets.shape, left_trks.shape (1, 7) (11, 5)\n","video 1/1 (12/300) /content/yolo_tracking/out.avi: 384x640 23 persons, 1 car, 2 motorcycles, 1 potted plant, 114.5ms\n","left_dets.shape, left_trks.shape (4, 7) (14, 5)\n","video 1/1 (13/300) /content/yolo_tracking/out.avi: 384x640 25 persons, 1 car, 1 motorcycle, 119.2ms\n","left_dets.shape, left_trks.shape (2, 7) (13, 5)\n","video 1/1 (14/300) /content/yolo_tracking/out.avi: 384x640 24 persons, 1 car, 1 motorcycle, 117.5ms\n","left_dets.shape, left_trks.shape (2, 7) (11, 5)\n","video 1/1 (15/300) /content/yolo_tracking/out.avi: 384x640 26 persons, 1 car, 1 motorcycle, 116.0ms\n","left_dets.shape, left_trks.shape (2, 7) (14, 5)\n","video 1/1 (16/300) /content/yolo_tracking/out.avi: 384x640 22 persons, 1 car, 2 motorcycles, 123.2ms\n","left_dets.shape, left_trks.shape (2, 7) (12, 5)\n","video 1/1 (17/300) /content/yolo_tracking/out.avi: 384x640 24 persons, 1 car, 2 motorcycles, 118.0ms\n","left_dets.shape, left_trks.shape (1, 7) (13, 5)\n","video 1/1 (18/300) /content/yolo_tracking/out.avi: 384x640 23 persons, 1 car, 1 motorcycle, 119.8ms\n","left_dets.shape, left_trks.shape (4, 7) (13, 5)\n","video 1/1 (19/300) /content/yolo_tracking/out.avi: 384x640 26 persons, 1 car, 1 motorcycle, 118.2ms\n","left_dets.shape, left_trks.shape (2, 7) (13, 5)\n","video 1/1 (20/300) /content/yolo_tracking/out.avi: 384x640 23 persons, 1 bicycle, 1 car, 1 motorcycle, 118.2ms\n","left_dets.shape, left_trks.shape (2, 7) (14, 5)\n","video 1/1 (21/300) /content/yolo_tracking/out.avi: 384x640 23 persons, 1 car, 1 motorcycle, 117.2ms\n","left_dets.shape, left_trks.shape (6, 7) (17, 5)\n","video 1/1 (22/300) /content/yolo_tracking/out.avi: 384x640 22 persons, 1 car, 1 motorcycle, 121.2ms\n","left_dets.shape, left_trks.shape (1, 7) (15, 5)\n","video 1/1 (23/300) /content/yolo_tracking/out.avi: 384x640 22 persons, 1 car, 2 motorcycles, 119.9ms\n","left_dets.shape, left_trks.shape (1, 7) (16, 5)\n","video 1/1 (24/300) /content/yolo_tracking/out.avi: 384x640 21 persons, 1 car, 2 motorcycles, 125.0ms\n","left_dets.shape, left_trks.shape (2, 7) (17, 5)\n","video 1/1 (25/300) /content/yolo_tracking/out.avi: 384x640 23 persons, 1 car, 173.2ms\n","left_dets.shape, left_trks.shape (4, 7) (17, 5)\n","video 1/1 (26/300) /content/yolo_tracking/out.avi: 384x640 22 persons, 1 car, 162.7ms\n","left_dets.shape, left_trks.shape (1, 7) (21, 5)\n","video 1/1 (27/300) /content/yolo_tracking/out.avi: 384x640 20 persons, 1 car, 1 traffic light, 155.0ms\n","left_dets.shape, left_trks.shape (3, 7) (24, 5)\n","video 1/1 (28/300) /content/yolo_tracking/out.avi: 384x640 19 persons, 1 car, 1 traffic light, 164.7ms\n","left_dets.shape, left_trks.shape (2, 7) (19, 5)\n","video 1/1 (29/300) /content/yolo_tracking/out.avi: 384x640 23 persons, 1 car, 1 traffic light, 127.8ms\n","left_dets.shape, left_trks.shape (1, 7) (19, 5)\n","video 1/1 (30/300) /content/yolo_tracking/out.avi: 384x640 22 persons, 1 car, 1 traffic light, 164.7ms\n","left_dets.shape, left_trks.shape (2, 7) (20, 5)\n","video 1/1 (31/300) /content/yolo_tracking/out.avi: 384x640 22 persons, 1 car, 1 traffic light, 158.2ms\n","left_dets.shape, left_trks.shape (1, 7) (22, 5)\n","video 1/1 (32/300) /content/yolo_tracking/out.avi: 384x640 19 persons, 1 car, 1 traffic light, 127.5ms\n","video 1/1 (33/300) /content/yolo_tracking/out.avi: 384x640 18 persons, 1 car, 1 traffic light, 170.2ms\n","video 1/1 (34/300) /content/yolo_tracking/out.avi: 384x640 17 persons, 1 car, 1 traffic light, 116.4ms\n","video 1/1 (35/300) /content/yolo_tracking/out.avi: 384x640 17 persons, 1 car, 1 traffic light, 123.0ms\n","left_dets.shape, left_trks.shape (2, 7) (24, 5)\n","video 1/1 (36/300) /content/yolo_tracking/out.avi: 384x640 17 persons, 1 car, 1 traffic light, 117.6ms\n","left_dets.shape, left_trks.shape (3, 7) (28, 5)\n","video 1/1 (37/300) /content/yolo_tracking/out.avi: 384x640 16 persons, 1 car, 1 traffic light, 117.7ms\n","left_dets.shape, left_trks.shape (1, 7) (26, 5)\n","video 1/1 (38/300) /content/yolo_tracking/out.avi: 384x640 16 persons, 1 car, 1 traffic light, 120.6ms\n","left_dets.shape, left_trks.shape (1, 7) (27, 5)\n","video 1/1 (39/300) /content/yolo_tracking/out.avi: 384x640 15 persons, 1 car, 1 traffic light, 117.4ms\n","video 1/1 (40/300) /content/yolo_tracking/out.avi: 384x640 13 persons, 1 car, 1 traffic light, 123.3ms\n","left_dets.shape, left_trks.shape (1, 7) (26, 5)\n","video 1/1 (41/300) /content/yolo_tracking/out.avi: 384x640 16 persons, 1 car, 1 traffic light, 117.3ms\n","video 1/1 (42/300) /content/yolo_tracking/out.avi: 384x640 13 persons, 1 car, 1 traffic light, 119.6ms\n","video 1/1 (43/300) /content/yolo_tracking/out.avi: 384x640 14 persons, 1 car, 1 traffic light, 117.3ms\n","video 1/1 (44/300) /content/yolo_tracking/out.avi: 384x640 15 persons, 1 car, 1 traffic light, 123.9ms\n","left_dets.shape, left_trks.shape (2, 7) (24, 5)\n","video 1/1 (45/300) /content/yolo_tracking/out.avi: 384x640 16 persons, 1 car, 1 traffic light, 118.6ms\n","video 1/1 (46/300) /content/yolo_tracking/out.avi: 384x640 17 persons, 1 car, 1 traffic light, 117.2ms\n","video 1/1 (47/300) /content/yolo_tracking/out.avi: 384x640 15 persons, 1 car, 1 traffic light, 122.7ms\n","left_dets.shape, left_trks.shape (2, 7) (23, 5)\n","video 1/1 (48/300) /content/yolo_tracking/out.avi: 384x640 17 persons, 1 car, 1 traffic light, 123.2ms\n","left_dets.shape, left_trks.shape (2, 7) (25, 5)\n","video 1/1 (49/300) /content/yolo_tracking/out.avi: 384x640 14 persons, 1 car, 1 traffic light, 118.5ms\n","left_dets.shape, left_trks.shape (2, 7) (24, 5)\n","video 1/1 (50/300) /content/yolo_tracking/out.avi: 384x640 16 persons, 1 car, 1 traffic light, 121.7ms\n","left_dets.shape, left_trks.shape (2, 7) (26, 5)\n","video 1/1 (51/300) /content/yolo_tracking/out.avi: 384x640 15 persons, 1 car, 1 traffic light, 120.7ms\n","left_dets.shape, left_trks.shape (2, 7) (27, 5)\n","video 1/1 (52/300) /content/yolo_tracking/out.avi: 384x640 16 persons, 1 car, 1 traffic light, 115.4ms\n","left_dets.shape, left_trks.shape (2, 7) (27, 5)\n","video 1/1 (53/300) /content/yolo_tracking/out.avi: 384x640 16 persons, 1 car, 1 traffic light, 115.9ms\n","left_dets.shape, left_trks.shape (3, 7) (25, 5)\n","video 1/1 (54/300) /content/yolo_tracking/out.avi: 384x640 16 persons, 1 car, 1 traffic light, 116.6ms\n","left_dets.shape, left_trks.shape (3, 7) (25, 5)\n","video 1/1 (55/300) /content/yolo_tracking/out.avi: 384x640 16 persons, 1 car, 1 traffic light, 125.4ms\n","left_dets.shape, left_trks.shape (1, 7) (22, 5)\n","video 1/1 (56/300) /content/yolo_tracking/out.avi: 384x640 14 persons, 1 car, 1 traffic light, 117.0ms\n","left_dets.shape, left_trks.shape (1, 7) (19, 5)\n","video 1/1 (57/300) /content/yolo_tracking/out.avi: 384x640 17 persons, 1 car, 1 traffic light, 118.7ms\n","left_dets.shape, left_trks.shape (1, 7) (21, 5)\n","video 1/1 (58/300) /content/yolo_tracking/out.avi: 384x640 14 persons, 1 car, 1 traffic light, 129.7ms\n","left_dets.shape, left_trks.shape (3, 7) (21, 5)\n","video 1/1 (59/300) /content/yolo_tracking/out.avi: 384x640 16 persons, 1 car, 1 traffic light, 122.7ms\n","left_dets.shape, left_trks.shape (3, 7) (22, 5)\n","video 1/1 (60/300) /content/yolo_tracking/out.avi: 384x640 14 persons, 1 car, 1 traffic light, 117.2ms\n","left_dets.shape, left_trks.shape (6, 7) (24, 5)\n","video 1/1 (61/300) /content/yolo_tracking/out.avi: 384x640 14 persons, 1 car, 1 traffic light, 119.3ms\n","left_dets.shape, left_trks.shape (3, 7) (23, 5)\n","video 1/1 (62/300) /content/yolo_tracking/out.avi: 384x640 14 persons, 2 cars, 1 traffic light, 122.0ms\n","left_dets.shape, left_trks.shape (2, 7) (22, 5)\n","video 1/1 (63/300) /content/yolo_tracking/out.avi: 384x640 13 persons, 2 cars, 1 traffic light, 119.5ms\n","left_dets.shape, left_trks.shape (2, 7) (22, 5)\n","video 1/1 (64/300) /content/yolo_tracking/out.avi: 384x640 13 persons, 2 cars, 1 traffic light, 122.8ms\n","left_dets.shape, left_trks.shape (3, 7) (22, 5)\n","video 1/1 (65/300) /content/yolo_tracking/out.avi: 384x640 13 persons, 2 cars, 1 traffic light, 119.2ms\n","left_dets.shape, left_trks.shape (3, 7) (22, 5)\n","video 1/1 (66/300) /content/yolo_tracking/out.avi: 384x640 14 persons, 2 cars, 1 traffic light, 122.9ms\n","left_dets.shape, left_trks.shape (2, 7) (23, 5)\n","video 1/1 (67/300) /content/yolo_tracking/out.avi: 384x640 14 persons, 2 cars, 1 traffic light, 117.6ms\n","left_dets.shape, left_trks.shape (3, 7) (23, 5)\n","video 1/1 (68/300) /content/yolo_tracking/out.avi: 384x640 13 persons, 2 cars, 1 traffic light, 116.9ms\n","left_dets.shape, left_trks.shape (2, 7) (20, 5)\n","video 1/1 (69/300) /content/yolo_tracking/out.avi: 384x640 15 persons, 2 cars, 1 traffic light, 120.3ms\n","left_dets.shape, left_trks.shape (4, 7) (23, 5)\n","video 1/1 (70/300) /content/yolo_tracking/out.avi: 384x640 14 persons, 2 cars, 1 traffic light, 126.5ms\n","left_dets.shape, left_trks.shape (2, 7) (21, 5)\n","video 1/1 (71/300) /content/yolo_tracking/out.avi: 384x640 14 persons, 2 cars, 1 traffic light, 156.5ms\n","left_dets.shape, left_trks.shape (2, 7) (21, 5)\n","video 1/1 (72/300) /content/yolo_tracking/out.avi: 384x640 14 persons, 2 cars, 1 traffic light, 159.1ms\n","left_dets.shape, left_trks.shape (4, 7) (20, 5)\n","video 1/1 (73/300) /content/yolo_tracking/out.avi: 384x640 15 persons, 2 cars, 157.5ms\n","left_dets.shape, left_trks.shape (1, 7) (19, 5)\n","video 1/1 (74/300) /content/yolo_tracking/out.avi: 384x640 19 persons, 2 cars, 159.5ms\n","left_dets.shape, left_trks.shape (2, 7) (22, 5)\n","video 1/1 (75/300) /content/yolo_tracking/out.avi: 384x640 18 persons, 1 car, 144.3ms\n","left_dets.shape, left_trks.shape (1, 7) (23, 5)\n","video 1/1 (76/300) /content/yolo_tracking/out.avi: 384x640 15 persons, 2 cars, 133.0ms\n","left_dets.shape, left_trks.shape (1, 7) (23, 5)\n","video 1/1 (77/300) /content/yolo_tracking/out.avi: 384x640 14 persons, 2 cars, 161.0ms\n","left_dets.shape, left_trks.shape (1, 7) (25, 5)\n","video 1/1 (78/300) /content/yolo_tracking/out.avi: 384x640 11 persons, 2 cars, 146.5ms\n","left_dets.shape, left_trks.shape (2, 7) (25, 5)\n","video 1/1 (79/300) /content/yolo_tracking/out.avi: 384x640 13 persons, 1 car, 169.0ms\n","left_dets.shape, left_trks.shape (1, 7) (23, 5)\n","video 1/1 (80/300) /content/yolo_tracking/out.avi: 384x640 12 persons, 2 cars, 167.9ms\n","video 1/1 (81/300) /content/yolo_tracking/out.avi: 384x640 11 persons, 2 cars, 122.8ms\n","video 1/1 (82/300) /content/yolo_tracking/out.avi: 384x640 11 persons, 2 cars, 121.5ms\n","video 1/1 (83/300) /content/yolo_tracking/out.avi: 384x640 12 persons, 2 cars, 118.4ms\n","video 1/1 (84/300) /content/yolo_tracking/out.avi: 384x640 13 persons, 1 car, 121.6ms\n","left_dets.shape, left_trks.shape (1, 7) (14, 5)\n","video 1/1 (85/300) /content/yolo_tracking/out.avi: 384x640 16 persons, 2 cars, 121.6ms\n","left_dets.shape, left_trks.shape (1, 7) (15, 5)\n","video 1/1 (86/300) /content/yolo_tracking/out.avi: 384x640 17 persons, 1 car, 115.7ms\n","left_dets.shape, left_trks.shape (3, 7) (18, 5)\n","video 1/1 (87/300) /content/yolo_tracking/out.avi: 384x640 16 persons, 1 car, 118.2ms\n","left_dets.shape, left_trks.shape (3, 7) (18, 5)\n","video 1/1 (88/300) /content/yolo_tracking/out.avi: 384x640 17 persons, 2 cars, 122.3ms\n","left_dets.shape, left_trks.shape (1, 7) (14, 5)\n","video 1/1 (89/300) /content/yolo_tracking/out.avi: 384x640 18 persons, 2 cars, 132.0ms\n","left_dets.shape, left_trks.shape (5, 7) (15, 5)\n","video 1/1 (90/300) /content/yolo_tracking/out.avi: 384x640 19 persons, 2 cars, 118.4ms\n","left_dets.shape, left_trks.shape (3, 7) (19, 5)\n","video 1/1 (91/300) /content/yolo_tracking/out.avi: 384x640 17 persons, 2 cars, 119.5ms\n","left_dets.shape, left_trks.shape (1, 7) (17, 5)\n","video 1/1 (92/300) /content/yolo_tracking/out.avi: 384x640 15 persons, 2 cars, 121.0ms\n","video 1/1 (93/300) /content/yolo_tracking/out.avi: 384x640 16 persons, 3 cars, 117.4ms\n","left_dets.shape, left_trks.shape (4, 7) (21, 5)\n","video 1/1 (94/300) /content/yolo_tracking/out.avi: 384x640 14 persons, 2 cars, 121.4ms\n","left_dets.shape, left_trks.shape (1, 7) (19, 5)\n","video 1/1 (95/300) /content/yolo_tracking/out.avi: 384x640 15 persons, 2 cars, 115.4ms\n","left_dets.shape, left_trks.shape (1, 7) (20, 5)\n","video 1/1 (96/300) /content/yolo_tracking/out.avi: 384x640 14 persons, 2 cars, 124.6ms\n","left_dets.shape, left_trks.shape (4, 7) (22, 5)\n","video 1/1 (97/300) /content/yolo_tracking/out.avi: 384x640 13 persons, 1 car, 1 traffic light, 119.2ms\n","left_dets.shape, left_trks.shape (2, 7) (21, 5)\n","video 1/1 (98/300) /content/yolo_tracking/out.avi: 384x640 15 persons, 1 car, 1 traffic light, 121.6ms\n","left_dets.shape, left_trks.shape (2, 7) (22, 5)\n","video 1/1 (99/300) /content/yolo_tracking/out.avi: 384x640 15 persons, 1 car, 1 motorcycle, 1 traffic light, 117.6ms\n","left_dets.shape, left_trks.shape (2, 7) (22, 5)\n","video 1/1 (100/300) /content/yolo_tracking/out.avi: 384x640 15 persons, 1 car, 1 motorcycle, 1 traffic light, 127.3ms\n","left_dets.shape, left_trks.shape (3, 7) (23, 5)\n","video 1/1 (101/300) /content/yolo_tracking/out.avi: 384x640 14 persons, 1 car, 1 motorcycle, 1 traffic light, 118.1ms\n","left_dets.shape, left_trks.shape (2, 7) (21, 5)\n","video 1/1 (102/300) /content/yolo_tracking/out.avi: 384x640 15 persons, 2 cars, 1 motorcycle, 1 traffic light, 119.5ms\n","left_dets.shape, left_trks.shape (2, 7) (21, 5)\n","video 1/1 (103/300) /content/yolo_tracking/out.avi: 384x640 15 persons, 2 cars, 1 motorcycle, 1 traffic light, 120.5ms\n","left_dets.shape, left_trks.shape (2, 7) (19, 5)\n","video 1/1 (104/300) /content/yolo_tracking/out.avi: 384x640 16 persons, 2 cars, 1 motorcycle, 1 traffic light, 120.7ms\n","left_dets.shape, left_trks.shape (1, 7) (17, 5)\n","video 1/1 (105/300) /content/yolo_tracking/out.avi: 384x640 16 persons, 1 car, 1 motorcycle, 1 truck, 119.0ms\n","left_dets.shape, left_trks.shape (1, 7) (17, 5)\n","video 1/1 (106/300) /content/yolo_tracking/out.avi: 384x640 16 persons, 2 cars, 1 motorcycle, 1 truck, 121.2ms\n","left_dets.shape, left_trks.shape (1, 7) (20, 5)\n","video 1/1 (107/300) /content/yolo_tracking/out.avi: 384x640 15 persons, 2 cars, 1 motorcycle, 1 truck, 130.5ms\n","left_dets.shape, left_trks.shape (2, 7) (22, 5)\n","video 1/1 (108/300) /content/yolo_tracking/out.avi: 384x640 14 persons, 2 cars, 1 motorcycle, 119.7ms\n","left_dets.shape, left_trks.shape (5, 7) (24, 5)\n","video 1/1 (109/300) /content/yolo_tracking/out.avi: 384x640 14 persons, 3 cars, 1 traffic light, 119.2ms\n","left_dets.shape, left_trks.shape (5, 7) (23, 5)\n","video 1/1 (110/300) /content/yolo_tracking/out.avi: 384x640 16 persons, 2 cars, 118.7ms\n","left_dets.shape, left_trks.shape (4, 7) (19, 5)\n","video 1/1 (111/300) /content/yolo_tracking/out.avi: 384x640 18 persons, 2 cars, 1 traffic light, 123.9ms\n","left_dets.shape, left_trks.shape (7, 7) (22, 5)\n","video 1/1 (112/300) /content/yolo_tracking/out.avi: 384x640 18 persons, 2 cars, 119.2ms\n","left_dets.shape, left_trks.shape (3, 7) (19, 5)\n","video 1/1 (113/300) /content/yolo_tracking/out.avi: 384x640 18 persons, 2 cars, 117.8ms\n","left_dets.shape, left_trks.shape (3, 7) (20, 5)\n","video 1/1 (114/300) /content/yolo_tracking/out.avi: 384x640 17 persons, 2 cars, 1 traffic light, 124.8ms\n","left_dets.shape, left_trks.shape (2, 7) (15, 5)\n","video 1/1 (115/300) /content/yolo_tracking/out.avi: 384x640 22 persons, 2 cars, 1 traffic light, 118.8ms\n","left_dets.shape, left_trks.shape (1, 7) (22, 5)\n","video 1/1 (116/300) /content/yolo_tracking/out.avi: 384x640 16 persons, 2 cars, 1 traffic light, 127.8ms\n","left_dets.shape, left_trks.shape (3, 7) (20, 5)\n","video 1/1 (117/300) /content/yolo_tracking/out.avi: 384x640 19 persons, 2 cars, 1 traffic light, 124.2ms\n","left_dets.shape, left_trks.shape (3, 7) (23, 5)\n","video 1/1 (118/300) /content/yolo_tracking/out.avi: 384x640 15 persons, 2 cars, 1 traffic light, 160.9ms\n","left_dets.shape, left_trks.shape (1, 7) (21, 5)\n","video 1/1 (119/300) /content/yolo_tracking/out.avi: 384x640 18 persons, 3 cars, 1 traffic light, 154.9ms\n","left_dets.shape, left_trks.shape (4, 7) (27, 5)\n","video 1/1 (120/300) /content/yolo_tracking/out.avi: 384x640 16 persons, 2 cars, 1 traffic light, 153.6ms\n","left_dets.shape, left_trks.shape (1, 7) (27, 5)\n","video 1/1 (121/300) /content/yolo_tracking/out.avi: 384x640 14 persons, 1 car, 1 traffic light, 163.5ms\n","left_dets.shape, left_trks.shape (2, 7) (25, 5)\n","video 1/1 (122/300) /content/yolo_tracking/out.avi: 384x640 16 persons, 1 car, 1 traffic light, 165.5ms\n","left_dets.shape, left_trks.shape (2, 7) (20, 5)\n","video 1/1 (123/300) /content/yolo_tracking/out.avi: 384x640 18 persons, 1 car, 1 traffic light, 168.3ms\n","left_dets.shape, left_trks.shape (2, 7) (22, 5)\n","video 1/1 (124/300) /content/yolo_tracking/out.avi: 384x640 18 persons, 1 car, 1 traffic light, 121.8ms\n","left_dets.shape, left_trks.shape (1, 7) (21, 5)\n","video 1/1 (125/300) /content/yolo_tracking/out.avi: 384x640 18 persons, 1 car, 1 traffic light, 139.4ms\n","video 1/1 (126/300) /content/yolo_tracking/out.avi: 384x640 19 persons, 1 car, 1 traffic light, 119.1ms\n","left_dets.shape, left_trks.shape (2, 7) (20, 5)\n","video 1/1 (127/300) /content/yolo_tracking/out.avi: 384x640 18 persons, 1 car, 1 traffic light, 124.5ms\n","left_dets.shape, left_trks.shape (1, 7) (23, 5)\n","video 1/1 (128/300) /content/yolo_tracking/out.avi: 384x640 15 persons, 1 car, 118.2ms\n","left_dets.shape, left_trks.shape (2, 7) (23, 5)\n","video 1/1 (129/300) /content/yolo_tracking/out.avi: 384x640 17 persons, 1 car, 1 traffic light, 124.0ms\n","video 1/1 (130/300) /content/yolo_tracking/out.avi: 384x640 17 persons, 1 car, 119.0ms\n","left_dets.shape, left_trks.shape (1, 7) (21, 5)\n","video 1/1 (131/300) /content/yolo_tracking/out.avi: 384x640 18 persons, 1 car, 1 traffic light, 124.1ms\n","left_dets.shape, left_trks.shape (2, 7) (21, 5)\n","video 1/1 (132/300) /content/yolo_tracking/out.avi: 384x640 18 persons, 1 car, 1 traffic light, 123.8ms\n","left_dets.shape, left_trks.shape (2, 7) (26, 5)\n","video 1/1 (133/300) /content/yolo_tracking/out.avi: 384x640 15 persons, 1 car, 1 traffic light, 121.0ms\n","left_dets.shape, left_trks.shape (2, 7) (25, 5)\n","video 1/1 (134/300) /content/yolo_tracking/out.avi: 384x640 16 persons, 1 car, 1 traffic light, 118.4ms\n","left_dets.shape, left_trks.shape (2, 7) (25, 5)\n","video 1/1 (135/300) /content/yolo_tracking/out.avi: 384x640 15 persons, 1 car, 1 traffic light, 120.9ms\n","left_dets.shape, left_trks.shape (3, 7) (25, 5)\n","video 1/1 (136/300) /content/yolo_tracking/out.avi: 384x640 17 persons, 1 car, 1 traffic light, 122.5ms\n","left_dets.shape, left_trks.shape (2, 7) (26, 5)\n","video 1/1 (137/300) /content/yolo_tracking/out.avi: 384x640 17 persons, 1 car, 1 traffic light, 119.7ms\n","left_dets.shape, left_trks.shape (2, 7) (27, 5)\n","video 1/1 (138/300) /content/yolo_tracking/out.avi: 384x640 16 persons, 1 car, 1 traffic light, 120.0ms\n","left_dets.shape, left_trks.shape (4, 7) (27, 5)\n","video 1/1 (139/300) /content/yolo_tracking/out.avi: 384x640 16 persons, 1 bicycle, 1 car, 1 traffic light, 119.0ms\n","left_dets.shape, left_trks.shape (3, 7) (23, 5)\n","video 1/1 (140/300) /content/yolo_tracking/out.avi: 384x640 19 persons, 1 car, 1 motorcycle, 1 traffic light, 119.1ms\n","left_dets.shape, left_trks.shape (2, 7) (25, 5)\n","video 1/1 (141/300) /content/yolo_tracking/out.avi: 384x640 19 persons, 1 car, 1 traffic light, 119.5ms\n","left_dets.shape, left_trks.shape (3, 7) (23, 5)\n","video 1/1 (142/300) /content/yolo_tracking/out.avi: 384x640 20 persons, 1 bicycle, 1 car, 1 traffic light, 117.1ms\n","left_dets.shape, left_trks.shape (1, 7) (24, 5)\n","video 1/1 (143/300) /content/yolo_tracking/out.avi: 384x640 17 persons, 1 car, 1 traffic light, 119.2ms\n","left_dets.shape, left_trks.shape (2, 7) (20, 5)\n","video 1/1 (144/300) /content/yolo_tracking/out.avi: 384x640 21 persons, 1 car, 1 truck, 1 traffic light, 118.0ms\n","video 1/1 (145/300) /content/yolo_tracking/out.avi: 384x640 15 persons, 2 cars, 119.5ms\n","video 1/1 (146/300) /content/yolo_tracking/out.avi: 384x640 16 persons, 1 car, 124.4ms\n","left_dets.shape, left_trks.shape (3, 7) (26, 5)\n","video 1/1 (147/300) /content/yolo_tracking/out.avi: 384x640 17 persons, 1 car, 122.3ms\n","left_dets.shape, left_trks.shape (3, 7) (24, 5)\n","video 1/1 (148/300) /content/yolo_tracking/out.avi: 384x640 20 persons, 1 car, 120.4ms\n","left_dets.shape, left_trks.shape (2, 7) (23, 5)\n","video 1/1 (149/300) /content/yolo_tracking/out.avi: 384x640 19 persons, 1 car, 119.2ms\n","left_dets.shape, left_trks.shape (1, 7) (21, 5)\n","video 1/1 (150/300) /content/yolo_tracking/out.avi: 384x640 20 persons, 1 car, 117.5ms\n","left_dets.shape, left_trks.shape (2, 7) (23, 5)\n","video 1/1 (151/300) /content/yolo_tracking/out.avi: 384x640 19 persons, 1 car, 121.1ms\n","left_dets.shape, left_trks.shape (2, 7) (24, 5)\n","video 1/1 (152/300) /content/yolo_tracking/out.avi: 384x640 19 persons, 1 car, 117.9ms\n","video 1/1 (153/300) /content/yolo_tracking/out.avi: 384x640 18 persons, 1 car, 123.7ms\n","video 1/1 (154/300) /content/yolo_tracking/out.avi: 384x640 19 persons, 1 car, 122.0ms\n","left_dets.shape, left_trks.shape (1, 7) (21, 5)\n","video 1/1 (155/300) /content/yolo_tracking/out.avi: 384x640 20 persons, 1 car, 1 traffic light, 122.4ms\n","left_dets.shape, left_trks.shape (1, 7) (24, 5)\n","video 1/1 (156/300) /content/yolo_tracking/out.avi: 384x640 17 persons, 1 car, 1 traffic light, 117.6ms\n","left_dets.shape, left_trks.shape (2, 7) (26, 5)\n","video 1/1 (157/300) /content/yolo_tracking/out.avi: 384x640 15 persons, 1 car, 1 traffic light, 118.5ms\n","video 1/1 (158/300) /content/yolo_tracking/out.avi: 384x640 14 persons, 1 car, 1 traffic light, 119.9ms\n","left_dets.shape, left_trks.shape (1, 7) (23, 5)\n","video 1/1 (159/300) /content/yolo_tracking/out.avi: 384x640 14 persons, 1 car, 1 truck, 1 traffic light, 118.0ms\n","left_dets.shape, left_trks.shape (2, 7) (25, 5)\n","video 1/1 (160/300) /content/yolo_tracking/out.avi: 384x640 15 persons, 1 car, 1 traffic light, 122.7ms\n","video 1/1 (161/300) /content/yolo_tracking/out.avi: 384x640 16 persons, 1 car, 1 traffic light, 157.2ms\n","video 1/1 (162/300) /content/yolo_tracking/out.avi: 384x640 15 persons, 1 car, 1 traffic light, 156.7ms\n","left_dets.shape, left_trks.shape (1, 7) (22, 5)\n","video 1/1 (163/300) /content/yolo_tracking/out.avi: 384x640 16 persons, 1 car, 1 traffic light, 159.3ms\n","left_dets.shape, left_trks.shape (2, 7) (23, 5)\n","video 1/1 (164/300) /content/yolo_tracking/out.avi: 384x640 15 persons, 1 car, 163.0ms\n","left_dets.shape, left_trks.shape (3, 7) (24, 5)\n","video 1/1 (165/300) /content/yolo_tracking/out.avi: 384x640 15 persons, 1 car, 1 truck, 1 handbag, 160.0ms\n","left_dets.shape, left_trks.shape (1, 7) (21, 5)\n","video 1/1 (166/300) /content/yolo_tracking/out.avi: 384x640 15 persons, 2 cars, 1 truck, 1 handbag, 173.1ms\n","video 1/1 (167/300) /content/yolo_tracking/out.avi: 384x640 14 persons, 1 car, 1 truck, 1 handbag, 142.0ms\n","video 1/1 (168/300) /content/yolo_tracking/out.avi: 384x640 13 persons, 1 car, 1 handbag, 167.6ms\n","left_dets.shape, left_trks.shape (1, 7) (24, 5)\n","video 1/1 (169/300) /content/yolo_tracking/out.avi: 384x640 11 persons, 2 cars, 1 handbag, 148.2ms\n","left_dets.shape, left_trks.shape (1, 7) (24, 5)\n","video 1/1 (170/300) /content/yolo_tracking/out.avi: 384x640 11 persons, 3 cars, 1 handbag, 164.8ms\n","left_dets.shape, left_trks.shape (1, 7) (24, 5)\n","video 1/1 (171/300) /content/yolo_tracking/out.avi: 384x640 12 persons, 3 cars, 1 handbag, 120.0ms\n","left_dets.shape, left_trks.shape (1, 7) (24, 5)\n","video 1/1 (172/300) /content/yolo_tracking/out.avi: 384x640 13 persons, 3 cars, 1 handbag, 118.0ms\n","left_dets.shape, left_trks.shape (1, 7) (27, 5)\n","video 1/1 (173/300) /content/yolo_tracking/out.avi: 384x640 14 persons, 1 car, 1 handbag, 120.6ms\n","left_dets.shape, left_trks.shape (1, 7) (26, 5)\n","video 1/1 (174/300) /content/yolo_tracking/out.avi: 384x640 14 persons, 1 car, 1 handbag, 120.4ms\n","video 1/1 (175/300) /content/yolo_tracking/out.avi: 384x640 14 persons, 1 car, 1 handbag, 126.5ms\n","left_dets.shape, left_trks.shape (1, 7) (24, 5)\n","video 1/1 (176/300) /content/yolo_tracking/out.avi: 384x640 15 persons, 1 car, 118.3ms\n","left_dets.shape, left_trks.shape (2, 7) (24, 5)\n","video 1/1 (177/300) /content/yolo_tracking/out.avi: 384x640 14 persons, 1 car, 117.7ms\n","left_dets.shape, left_trks.shape (1, 7) (24, 5)\n","video 1/1 (178/300) /content/yolo_tracking/out.avi: 384x640 15 persons, 1 car, 119.1ms\n","left_dets.shape, left_trks.shape (2, 7) (24, 5)\n","video 1/1 (179/300) /content/yolo_tracking/out.avi: 384x640 15 persons, 1 car, 127.6ms\n","left_dets.shape, left_trks.shape (3, 7) (26, 5)\n","video 1/1 (180/300) /content/yolo_tracking/out.avi: 384x640 16 persons, 1 car, 119.6ms\n","left_dets.shape, left_trks.shape (5, 7) (24, 5)\n","video 1/1 (181/300) /content/yolo_tracking/out.avi: 384x640 17 persons, 1 car, 119.7ms\n","left_dets.shape, left_trks.shape (3, 7) (23, 5)\n","video 1/1 (182/300) /content/yolo_tracking/out.avi: 384x640 19 persons, 1 car, 127.1ms\n","left_dets.shape, left_trks.shape (1, 7) (22, 5)\n","video 1/1 (183/300) /content/yolo_tracking/out.avi: 384x640 18 persons, 1 car, 115.7ms\n","left_dets.shape, left_trks.shape (1, 7) (22, 5)\n","video 1/1 (184/300) /content/yolo_tracking/out.avi: 384x640 17 persons, 1 car, 120.8ms\n","left_dets.shape, left_trks.shape (3, 7) (21, 5)\n","video 1/1 (185/300) /content/yolo_tracking/out.avi: 384x640 20 persons, 1 car, 120.0ms\n","left_dets.shape, left_trks.shape (4, 7) (23, 5)\n","video 1/1 (186/300) /content/yolo_tracking/out.avi: 384x640 19 persons, 1 car, 120.5ms\n","left_dets.shape, left_trks.shape (3, 7) (21, 5)\n","video 1/1 (187/300) /content/yolo_tracking/out.avi: 384x640 19 persons, 1 car, 121.3ms\n","left_dets.shape, left_trks.shape (3, 7) (21, 5)\n","video 1/1 (188/300) /content/yolo_tracking/out.avi: 384x640 19 persons, 1 car, 121.3ms\n","left_dets.shape, left_trks.shape (4, 7) (20, 5)\n","video 1/1 (189/300) /content/yolo_tracking/out.avi: 384x640 20 persons, 1 car, 118.6ms\n","left_dets.shape, left_trks.shape (1, 7) (22, 5)\n","video 1/1 (190/300) /content/yolo_tracking/out.avi: 384x640 17 persons, 1 car, 116.4ms\n","left_dets.shape, left_trks.shape (2, 7) (23, 5)\n","video 1/1 (191/300) /content/yolo_tracking/out.avi: 384x640 15 persons, 1 car, 1 truck, 118.2ms\n","left_dets.shape, left_trks.shape (1, 7) (21, 5)\n","video 1/1 (192/300) /content/yolo_tracking/out.avi: 384x640 18 persons, 1 car, 1 truck, 115.6ms\n","left_dets.shape, left_trks.shape (4, 7) (26, 5)\n","video 1/1 (193/300) /content/yolo_tracking/out.avi: 384x640 14 persons, 1 car, 120.1ms\n","left_dets.shape, left_trks.shape (1, 7) (23, 5)\n","video 1/1 (194/300) /content/yolo_tracking/out.avi: 384x640 16 persons, 1 car, 1 boat, 120.6ms\n","video 1/1 (195/300) /content/yolo_tracking/out.avi: 384x640 15 persons, 1 car, 1 boat, 1 handbag, 123.5ms\n","left_dets.shape, left_trks.shape (2, 7) (22, 5)\n","video 1/1 (196/300) /content/yolo_tracking/out.avi: 384x640 17 persons, 1 car, 1 boat, 120.1ms\n","video 1/1 (197/300) /content/yolo_tracking/out.avi: 384x640 19 persons, 1 car, 1 boat, 127.3ms\n","left_dets.shape, left_trks.shape (3, 7) (22, 5)\n","video 1/1 (198/300) /content/yolo_tracking/out.avi: 384x640 18 persons, 1 car, 1 boat, 120.0ms\n","left_dets.shape, left_trks.shape (1, 7) (19, 5)\n","video 1/1 (199/300) /content/yolo_tracking/out.avi: 384x640 20 persons, 1 car, 1 boat, 1 handbag, 120.4ms\n","left_dets.shape, left_trks.shape (1, 7) (21, 5)\n","video 1/1 (200/300) /content/yolo_tracking/out.avi: 384x640 19 persons, 1 car, 1 boat, 117.8ms\n","left_dets.shape, left_trks.shape (1, 7) (22, 5)\n","video 1/1 (201/300) /content/yolo_tracking/out.avi: 384x640 18 persons, 1 car, 1 boat, 122.5ms\n","video 1/1 (202/300) /content/yolo_tracking/out.avi: 384x640 15 persons, 1 car, 1 boat, 116.9ms\n","left_dets.shape, left_trks.shape (1, 7) (22, 5)\n","video 1/1 (203/300) /content/yolo_tracking/out.avi: 384x640 16 persons, 1 car, 1 boat, 121.5ms\n","video 1/1 (204/300) /content/yolo_tracking/out.avi: 384x640 15 persons, 1 car, 1 boat, 127.2ms\n","left_dets.shape, left_trks.shape (3, 7) (22, 5)\n","video 1/1 (205/300) /content/yolo_tracking/out.avi: 384x640 18 persons, 1 car, 120.0ms\n","left_dets.shape, left_trks.shape (3, 7) (20, 5)\n","video 1/1 (206/300) /content/yolo_tracking/out.avi: 384x640 19 persons, 2 cars, 128.4ms\n","left_dets.shape, left_trks.shape (1, 7) (18, 5)\n","video 1/1 (207/300) /content/yolo_tracking/out.avi: 384x640 20 persons, 2 cars, 163.2ms\n","left_dets.shape, left_trks.shape (1, 7) (19, 5)\n","video 1/1 (208/300) /content/yolo_tracking/out.avi: 384x640 19 persons, 2 cars, 157.8ms\n","left_dets.shape, left_trks.shape (4, 7) (19, 5)\n","video 1/1 (209/300) /content/yolo_tracking/out.avi: 384x640 20 persons, 2 cars, 157.6ms\n","left_dets.shape, left_trks.shape (3, 7) (21, 5)\n","video 1/1 (210/300) /content/yolo_tracking/out.avi: 384x640 20 persons, 3 cars, 161.7ms\n","left_dets.shape, left_trks.shape (3, 7) (22, 5)\n","video 1/1 (211/300) /content/yolo_tracking/out.avi: 384x640 20 persons, 2 cars, 143.5ms\n","left_dets.shape, left_trks.shape (3, 7) (21, 5)\n","video 1/1 (212/300) /content/yolo_tracking/out.avi: 384x640 19 persons, 1 car, 167.1ms\n","left_dets.shape, left_trks.shape (2, 7) (18, 5)\n","video 1/1 (213/300) /content/yolo_tracking/out.avi: 384x640 21 persons, 1 car, 130.8ms\n","left_dets.shape, left_trks.shape (4, 7) (23, 5)\n","video 1/1 (214/300) /content/yolo_tracking/out.avi: 384x640 19 persons, 1 car, 160.3ms\n","left_dets.shape, left_trks.shape (5, 7) (24, 5)\n","video 1/1 (215/300) /content/yolo_tracking/out.avi: 384x640 20 persons, 2 cars, 128.4ms\n","left_dets.shape, left_trks.shape (1, 7) (20, 5)\n","video 1/1 (216/300) /content/yolo_tracking/out.avi: 384x640 21 persons, 1 car, 118.4ms\n","left_dets.shape, left_trks.shape (5, 7) (24, 5)\n","video 1/1 (217/300) /content/yolo_tracking/out.avi: 384x640 20 persons, 1 car, 115.3ms\n","left_dets.shape, left_trks.shape (4, 7) (26, 5)\n","video 1/1 (218/300) /content/yolo_tracking/out.avi: 384x640 19 persons, 1 car, 125.3ms\n","left_dets.shape, left_trks.shape (4, 7) (25, 5)\n","video 1/1 (219/300) /content/yolo_tracking/out.avi: 384x640 19 persons, 1 car, 123.5ms\n","left_dets.shape, left_trks.shape (3, 7) (22, 5)\n","video 1/1 (220/300) /content/yolo_tracking/out.avi: 384x640 23 persons, 1 car, 117.6ms\n","left_dets.shape, left_trks.shape (3, 7) (28, 5)\n","video 1/1 (221/300) /content/yolo_tracking/out.avi: 384x640 17 persons, 1 car, 121.4ms\n","left_dets.shape, left_trks.shape (2, 7) (29, 5)\n","video 1/1 (222/300) /content/yolo_tracking/out.avi: 384x640 15 persons, 1 car, 122.1ms\n","left_dets.shape, left_trks.shape (2, 7) (28, 5)\n","video 1/1 (223/300) /content/yolo_tracking/out.avi: 384x640 16 persons, 1 car, 119.2ms\n","left_dets.shape, left_trks.shape (5, 7) (27, 5)\n","video 1/1 (224/300) /content/yolo_tracking/out.avi: 384x640 18 persons, 1 car, 120.1ms\n","left_dets.shape, left_trks.shape (3, 7) (28, 5)\n","video 1/1 (225/300) /content/yolo_tracking/out.avi: 384x640 17 persons, 1 car, 119.7ms\n","left_dets.shape, left_trks.shape (3, 7) (31, 5)\n","video 1/1 (226/300) /content/yolo_tracking/out.avi: 384x640 14 persons, 1 car, 121.9ms\n","left_dets.shape, left_trks.shape (3, 7) (28, 5)\n","video 1/1 (227/300) /content/yolo_tracking/out.avi: 384x640 16 persons, 1 car, 118.6ms\n","left_dets.shape, left_trks.shape (2, 7) (25, 5)\n","video 1/1 (228/300) /content/yolo_tracking/out.avi: 384x640 17 persons, 1 car, 115.6ms\n","left_dets.shape, left_trks.shape (2, 7) (32, 5)\n","video 1/1 (229/300) /content/yolo_tracking/out.avi: 384x640 12 persons, 1 car, 116.5ms\n","left_dets.shape, left_trks.shape (3, 7) (28, 5)\n","video 1/1 (230/300) /content/yolo_tracking/out.avi: 384x640 17 persons, 1 car, 119.0ms\n","left_dets.shape, left_trks.shape (4, 7) (28, 5)\n","video 1/1 (231/300) /content/yolo_tracking/out.avi: 384x640 17 persons, 1 car, 118.1ms\n","left_dets.shape, left_trks.shape (4, 7) (27, 5)\n","video 1/1 (232/300) /content/yolo_tracking/out.avi: 384x640 18 persons, 1 car, 119.3ms\n","left_dets.shape, left_trks.shape (6, 7) (29, 5)\n","video 1/1 (233/300) /content/yolo_tracking/out.avi: 384x640 17 persons, 1 car, 117.0ms\n","left_dets.shape, left_trks.shape (4, 7) (28, 5)\n","video 1/1 (234/300) /content/yolo_tracking/out.avi: 384x640 17 persons, 1 car, 117.3ms\n","left_dets.shape, left_trks.shape (2, 7) (30, 5)\n","video 1/1 (235/300) /content/yolo_tracking/out.avi: 384x640 15 persons, 1 car, 114.7ms\n","left_dets.shape, left_trks.shape (3, 7) (29, 5)\n","video 1/1 (236/300) /content/yolo_tracking/out.avi: 384x640 16 persons, 1 car, 117.9ms\n","left_dets.shape, left_trks.shape (3, 7) (28, 5)\n","video 1/1 (237/300) /content/yolo_tracking/out.avi: 384x640 17 persons, 1 car, 118.8ms\n","left_dets.shape, left_trks.shape (3, 7) (29, 5)\n","video 1/1 (238/300) /content/yolo_tracking/out.avi: 384x640 16 persons, 1 car, 121.2ms\n","left_dets.shape, left_trks.shape (3, 7) (29, 5)\n","video 1/1 (239/300) /content/yolo_tracking/out.avi: 384x640 15 persons, 1 car, 120.3ms\n","left_dets.shape, left_trks.shape (4, 7) (31, 5)\n","video 1/1 (240/300) /content/yolo_tracking/out.avi: 384x640 15 persons, 1 car, 122.2ms\n","left_dets.shape, left_trks.shape (5, 7) (29, 5)\n","video 1/1 (241/300) /content/yolo_tracking/out.avi: 384x640 15 persons, 1 car, 122.7ms\n","left_dets.shape, left_trks.shape (2, 7) (27, 5)\n","video 1/1 (242/300) /content/yolo_tracking/out.avi: 384x640 17 persons, 1 car, 140.5ms\n","left_dets.shape, left_trks.shape (3, 7) (28, 5)\n","video 1/1 (243/300) /content/yolo_tracking/out.avi: 384x640 16 persons, 1 car, 167.9ms\n","left_dets.shape, left_trks.shape (3, 7) (27, 5)\n","video 1/1 (244/300) /content/yolo_tracking/out.avi: 384x640 17 persons, 1 car, 157.2ms\n","left_dets.shape, left_trks.shape (2, 7) (24, 5)\n","video 1/1 (245/300) /content/yolo_tracking/out.avi: 384x640 16 persons, 1 car, 158.8ms\n","left_dets.shape, left_trks.shape (1, 7) (22, 5)\n","video 1/1 (246/300) /content/yolo_tracking/out.avi: 384x640 18 persons, 1 car, 162.1ms\n","video 1/1 (247/300) /content/yolo_tracking/out.avi: 384x640 18 persons, 1 car, 168.6ms\n","left_dets.shape, left_trks.shape (1, 7) (21, 5)\n","video 1/1 (248/300) /content/yolo_tracking/out.avi: 384x640 17 persons, 1 car, 129.8ms\n","video 1/1 (249/300) /content/yolo_tracking/out.avi: 384x640 18 persons, 1 car, 198.0ms\n","video 1/1 (250/300) /content/yolo_tracking/out.avi: 384x640 19 persons, 1 car, 202.4ms\n","left_dets.shape, left_trks.shape (1, 7) (20, 5)\n","video 1/1 (251/300) /content/yolo_tracking/out.avi: 384x640 17 persons, 1 car, 188.1ms\n","left_dets.shape, left_trks.shape (1, 7) (19, 5)\n","video 1/1 (252/300) /content/yolo_tracking/out.avi: 384x640 16 persons, 1 car, 180.9ms\n","video 1/1 (253/300) /content/yolo_tracking/out.avi: 384x640 16 persons, 1 car, 193.6ms\n","video 1/1 (254/300) /content/yolo_tracking/out.avi: 384x640 15 persons, 1 car, 180.8ms\n","left_dets.shape, left_trks.shape (2, 7) (22, 5)\n","video 1/1 (255/300) /content/yolo_tracking/out.avi: 384x640 14 persons, 1 car, 161.2ms\n","left_dets.shape, left_trks.shape (2, 7) (23, 5)\n","video 1/1 (256/300) /content/yolo_tracking/out.avi: 384x640 17 persons, 1 car, 178.1ms\n","left_dets.shape, left_trks.shape (1, 7) (21, 5)\n","video 1/1 (257/300) /content/yolo_tracking/out.avi: 384x640 16 persons, 1 car, 194.8ms\n","video 1/1 (258/300) /content/yolo_tracking/out.avi: 384x640 16 persons, 1 car, 186.2ms\n","left_dets.shape, left_trks.shape (1, 7) (23, 5)\n","video 1/1 (259/300) /content/yolo_tracking/out.avi: 384x640 15 persons, 1 car, 180.8ms\n","left_dets.shape, left_trks.shape (1, 7) (22, 5)\n","video 1/1 (260/300) /content/yolo_tracking/out.avi: 384x640 16 persons, 1 car, 190.4ms\n","left_dets.shape, left_trks.shape (2, 7) (23, 5)\n","video 1/1 (261/300) /content/yolo_tracking/out.avi: 384x640 15 persons, 1 car, 182.9ms\n","left_dets.shape, left_trks.shape (2, 7) (22, 5)\n","video 1/1 (262/300) /content/yolo_tracking/out.avi: 384x640 17 persons, 1 car, 189.6ms\n","left_dets.shape, left_trks.shape (1, 7) (24, 5)\n","video 1/1 (263/300) /content/yolo_tracking/out.avi: 384x640 16 persons, 1 car, 164.5ms\n","left_dets.shape, left_trks.shape (2, 7) (23, 5)\n","video 1/1 (264/300) /content/yolo_tracking/out.avi: 384x640 18 persons, 1 car, 171.0ms\n","left_dets.shape, left_trks.shape (3, 7) (26, 5)\n","video 1/1 (265/300) /content/yolo_tracking/out.avi: 384x640 14 persons, 1 car, 197.8ms\n","left_dets.shape, left_trks.shape (2, 7) (26, 5)\n","video 1/1 (266/300) /content/yolo_tracking/out.avi: 384x640 15 persons, 1 car, 1 boat, 178.5ms\n","left_dets.shape, left_trks.shape (3, 7) (25, 5)\n","video 1/1 (267/300) /content/yolo_tracking/out.avi: 384x640 17 persons, 1 car, 179.5ms\n","left_dets.shape, left_trks.shape (1, 7) (22, 5)\n","video 1/1 (268/300) /content/yolo_tracking/out.avi: 384x640 18 persons, 1 car, 1 handbag, 120.7ms\n","left_dets.shape, left_trks.shape (1, 7) (24, 5)\n","video 1/1 (269/300) /content/yolo_tracking/out.avi: 384x640 18 persons, 1 car, 123.0ms\n","video 1/1 (270/300) /content/yolo_tracking/out.avi: 384x640 17 persons, 1 car, 120.7ms\n","left_dets.shape, left_trks.shape (1, 7) (22, 5)\n","video 1/1 (271/300) /content/yolo_tracking/out.avi: 384x640 17 persons, 1 car, 124.6ms\n","left_dets.shape, left_trks.shape (2, 7) (23, 5)\n","video 1/1 (272/300) /content/yolo_tracking/out.avi: 384x640 16 persons, 1 car, 1 boat, 125.8ms\n","video 1/1 (273/300) /content/yolo_tracking/out.avi: 384x640 17 persons, 1 car, 119.1ms\n","left_dets.shape, left_trks.shape (1, 7) (23, 5)\n","video 1/1 (274/300) /content/yolo_tracking/out.avi: 384x640 17 persons, 1 car, 120.6ms\n","left_dets.shape, left_trks.shape (1, 7) (22, 5)\n","video 1/1 (275/300) /content/yolo_tracking/out.avi: 384x640 17 persons, 1 car, 118.7ms\n","left_dets.shape, left_trks.shape (1, 7) (22, 5)\n","video 1/1 (276/300) /content/yolo_tracking/out.avi: 384x640 18 persons, 2 cars, 121.9ms\n","left_dets.shape, left_trks.shape (1, 7) (25, 5)\n","video 1/1 (277/300) /content/yolo_tracking/out.avi: 384x640 16 persons, 1 car, 119.9ms\n","left_dets.shape, left_trks.shape (1, 7) (26, 5)\n","video 1/1 (278/300) /content/yolo_tracking/out.avi: 384x640 15 persons, 1 car, 116.6ms\n","left_dets.shape, left_trks.shape (3, 7) (27, 5)\n","video 1/1 (279/300) /content/yolo_tracking/out.avi: 384x640 16 persons, 1 car, 116.0ms\n","left_dets.shape, left_trks.shape (1, 7) (26, 5)\n","video 1/1 (280/300) /content/yolo_tracking/out.avi: 384x640 15 persons, 1 car, 121.2ms\n","video 1/1 (281/300) /content/yolo_tracking/out.avi: 384x640 17 persons, 1 car, 120.6ms\n","video 1/1 (282/300) /content/yolo_tracking/out.avi: 384x640 14 persons, 1 car, 116.8ms\n","left_dets.shape, left_trks.shape (1, 7) (24, 5)\n","video 1/1 (283/300) /content/yolo_tracking/out.avi: 384x640 17 persons, 1 car, 125.5ms\n","video 1/1 (284/300) /content/yolo_tracking/out.avi: 384x640 18 persons, 1 car, 118.1ms\n","left_dets.shape, left_trks.shape (2, 7) (23, 5)\n","video 1/1 (285/300) /content/yolo_tracking/out.avi: 384x640 17 persons, 1 car, 119.4ms\n","left_dets.shape, left_trks.shape (2, 7) (22, 5)\n","video 1/1 (286/300) /content/yolo_tracking/out.avi: 384x640 18 persons, 1 car, 121.8ms\n","video 1/1 (287/300) /content/yolo_tracking/out.avi: 384x640 16 persons, 1 car, 132.7ms\n","video 1/1 (288/300) /content/yolo_tracking/out.avi: 384x640 16 persons, 1 car, 118.5ms\n","left_dets.shape, left_trks.shape (2, 7) (22, 5)\n","video 1/1 (289/300) /content/yolo_tracking/out.avi: 384x640 15 persons, 1 car, 1 truck, 121.4ms\n","left_dets.shape, left_trks.shape (2, 7) (20, 5)\n","video 1/1 (290/300) /content/yolo_tracking/out.avi: 384x640 16 persons, 1 car, 1 truck, 118.1ms\n","left_dets.shape, left_trks.shape (1, 7) (20, 5)\n","video 1/1 (291/300) /content/yolo_tracking/out.avi: 384x640 16 persons, 1 car, 1 truck, 122.6ms\n","video 1/1 (292/300) /content/yolo_tracking/out.avi: 384x640 16 persons, 1 car, 1 truck, 119.5ms\n","video 1/1 (293/300) /content/yolo_tracking/out.avi: 384x640 16 persons, 1 car, 1 truck, 119.9ms\n","left_dets.shape, left_trks.shape (1, 7) (22, 5)\n","video 1/1 (294/300) /content/yolo_tracking/out.avi: 384x640 15 persons, 1 car, 1 truck, 127.0ms\n","video 1/1 (295/300) /content/yolo_tracking/out.avi: 384x640 16 persons, 1 car, 1 truck, 122.9ms\n","video 1/1 (296/300) /content/yolo_tracking/out.avi: 384x640 17 persons, 1 car, 1 truck, 116.7ms\n","left_dets.shape, left_trks.shape (3, 7) (19, 5)\n","video 1/1 (297/300) /content/yolo_tracking/out.avi: 384x640 16 persons, 1 car, 1 truck, 121.6ms\n","left_dets.shape, left_trks.shape (2, 7) (21, 5)\n","video 1/1 (298/300) /content/yolo_tracking/out.avi: 384x640 15 persons, 1 car, 1 truck, 123.1ms\n","video 1/1 (299/300) /content/yolo_tracking/out.avi: 384x640 17 persons, 1 car, 1 truck, 122.5ms\n","left_dets.shape, left_trks.shape (3, 7) (19, 5)\n","video 1/1 (300/300) /content/yolo_tracking/out.avi: 384x640 17 persons, 1 car, 118.0ms\n","Speed: 2.0ms preprocess, 130.8ms inference, 1.0ms postprocess, 166.2ms tracking per image at shape (1, 3, 384, 640)\n","Results saved to \u001b[1m/content/yolo_tracking/runs/track/exp\u001b[0m\n"]}]},{"cell_type":"markdown","metadata":{"id":"vd-CFrVGBoEU"},"source":["# Show results\n","\n","https://stackoverflow.com/questions/60977179/how-to-play-avi-file-in-google-colab\n","\n","https://stackoverflow.com/questions/57377185/how-play-mp4-video-in-google-colab\n","\n","Compress the video file to a format supported by Google Colab (mpeg4 (native) -> h264 (libx264))"]},{"cell_type":"code","metadata":{"id":"Q-4tlUaCBjDC","colab":{"base_uri":"https://localhost:8080/"},"executionInfo":{"status":"ok","timestamp":1692996322373,"user_tz":300,"elapsed":6044,"user":{"displayName":"Joshua W","userId":"11234259929288430202"}},"outputId":"aa18acf3-0b6b-48b2-c8c9-d627da3ab015"},"source":["!ffmpeg -i /content/yolo_tracking/runs/track/exp/out.avi -vf fps=30 -vcodec libx264 output.mp4"],"execution_count":4,"outputs":[{"output_type":"stream","name":"stdout","text":["ffmpeg version 4.4.2-0ubuntu0.22.04.1 Copyright (c) 2000-2021 the FFmpeg developers\n","  built with gcc 11 (Ubuntu 11.2.0-19ubuntu1)\n","  configuration: --prefix=/usr --extra-version=0ubuntu0.22.04.1 --toolchain=hardened --libdir=/usr/lib/x86_64-linux-gnu --incdir=/usr/include/x86_64-linux-gnu --arch=amd64 --enable-gpl --disable-stripping --enable-gnutls --enable-ladspa --enable-libaom --enable-libass --enable-libbluray --enable-libbs2b --enable-libcaca --enable-libcdio --enable-libcodec2 --enable-libdav1d --enable-libflite --enable-libfontconfig --enable-libfreetype --enable-libfribidi --enable-libgme --enable-libgsm --enable-libjack --enable-libmp3lame --enable-libmysofa --enable-libopenjpeg --enable-libopenmpt --enable-libopus --enable-libpulse --enable-librabbitmq --enable-librubberband --enable-libshine --enable-libsnappy --enable-libsoxr --enable-libspeex --enable-libsrt --enable-libssh --enable-libtheora --enable-libtwolame --enable-libvidstab --enable-libvorbis --enable-libvpx --enable-libwebp --enable-libx265 --enable-libxml2 --enable-libxvid --enable-libzimg --enable-libzmq --enable-libzvbi --enable-lv2 --enable-omx --enable-openal --enable-opencl --enable-opengl --enable-sdl2 --enable-pocketsphinx --enable-librsvg --enable-libmfx --enable-libdc1394 --enable-libdrm --enable-libiec61883 --enable-chromaprint --enable-frei0r --enable-libx264 --enable-shared\n","  libavutil      56. 70.100 / 56. 70.100\n","  libavcodec     58.134.100 / 58.134.100\n","  libavformat    58. 76.100 / 58. 76.100\n","  libavdevice    58. 13.100 / 58. 13.100\n","  libavfilter     7.110.100 /  7.110.100\n","  libswscale      5.  9.100 /  5.  9.100\n","  libswresample   3.  9.100 /  3.  9.100\n","  libpostproc    55.  9.100 / 55.  9.100\n","Input #0, avi, from '/content/yolo_tracking/runs/track/exp/out.avi':\n","  Metadata:\n","    software        : Lavf59.27.100\n","  Duration: 00:00:10.00, start: 0.000000, bitrate: 16682 kb/s\n","  Stream #0:0: Video: mjpeg (Baseline) (MJPG / 0x47504A4D), yuvj420p(pc, bt470bg/unknown/unknown), 960x540, 16725 kb/s, 30 fps, 30 tbr, 30 tbn, 30 tbc\n","Stream mapping:\n","  Stream #0:0 -> #0:0 (mjpeg (native) -> h264 (libx264))\n","Press [q] to stop, [?] for help\n","\u001b[1;36m[libx264 @ 0x57c4155ceec0] \u001b[0musing cpu capabilities: MMX2 SSE2Fast SSSE3 SSE4.2 AVX FMA3 BMI2 AVX2\n","\u001b[1;36m[libx264 @ 0x57c4155ceec0] \u001b[0mprofile High, level 3.1, 4:2:0, 8-bit\n","\u001b[1;36m[libx264 @ 0x57c4155ceec0] \u001b[0m264 - core 163 r3060 5db6aa6 - H.264/MPEG-4 AVC codec - Copyleft 2003-2021 - http://www.videolan.org/x264.html - options: cabac=1 ref=3 deblock=1:0:0 analyse=0x3:0x113 me=hex subme=7 psy=1 psy_rd=1.00:0.00 mixed_ref=1 me_range=16 chroma_me=1 trellis=1 8x8dct=1 cqm=0 deadzone=21,11 fast_pskip=1 chroma_qp_offset=-2 threads=3 lookahead_threads=1 sliced_threads=0 nr=0 decimate=1 interlaced=0 bluray_compat=0 constrained_intra=0 bframes=3 b_pyramid=2 b_adapt=1 b_bias=0 direct=1 weightb=1 open_gop=0 weightp=2 keyint=250 keyint_min=25 scenecut=40 intra_refresh=0 rc_lookahead=40 rc=crf mbtree=1 crf=23.0 qcomp=0.60 qpmin=0 qpmax=69 qpstep=4 ip_ratio=1.40 aq=1:1.00\n","Output #0, mp4, to 'output.mp4':\n","  Metadata:\n","    software        : Lavf59.27.100\n","    encoder         : Lavf58.76.100\n","  Stream #0:0: Video: h264 (avc1 / 0x31637661), yuvj420p(pc, bt470bg/unknown/unknown, progressive), 960x540, q=2-31, 30 fps, 15360 tbn\n","    Metadata:\n","      encoder         : Lavc58.134.100 libx264\n","    Side data:\n","      cpb: bitrate max/min/avg: 0/0/0 buffer size: 0 vbv_delay: N/A\n","frame=  300 fps= 52 q=-1.0 Lsize=    2632kB time=00:00:09.90 bitrate=2178.2kbits/s speed=1.72x    \n","video:2628kB audio:0kB subtitle:0kB other streams:0kB global headers:0kB muxing overhead: 0.166921%\n","\u001b[1;36m[libx264 @ 0x57c4155ceec0] \u001b[0mframe I:2     Avg QP:20.96  size: 58004\n","\u001b[1;36m[libx264 @ 0x57c4155ceec0] \u001b[0mframe P:76    Avg QP:23.34  size: 18420\n","\u001b[1;36m[libx264 @ 0x57c4155ceec0] \u001b[0mframe B:222   Avg QP:28.84  size:  5290\n","\u001b[1;36m[libx264 @ 0x57c4155ceec0] \u001b[0mconsecutive B-frames:  1.3%  0.0%  0.0% 98.7%\n","\u001b[1;36m[libx264 @ 0x57c4155ceec0] \u001b[0mmb I  I16..4: 22.6% 64.3% 13.0%\n","\u001b[1;36m[libx264 @ 0x57c4155ceec0] \u001b[0mmb P  I16..4:  5.3% 14.2%  4.8%  P16..4: 16.9% 11.1%  8.5%  0.0%  0.0%    skip:39.2%\n","\u001b[1;36m[libx264 @ 0x57c4155ceec0] \u001b[0mmb B  I16..4:  0.7%  1.9%  0.6%  B16..8: 31.1%  8.2%  2.3%  direct: 2.1%  skip:53.2%  L0:59.3% L1:35.5% BI: 5.1%\n","\u001b[1;36m[libx264 @ 0x57c4155ceec0] \u001b[0m8x8 transform intra:59.0% inter:64.6%\n","\u001b[1;36m[libx264 @ 0x57c4155ceec0] \u001b[0mcoded y,uvDC,uvAC intra: 51.3% 62.2% 28.8% inter: 7.8% 16.1% 11.7%\n","\u001b[1;36m[libx264 @ 0x57c4155ceec0] \u001b[0mi16 v,h,dc,p: 38% 47% 16%  0%\n","\u001b[1;36m[libx264 @ 0x57c4155ceec0] \u001b[0mi8 v,h,dc,ddl,ddr,vr,hd,vl,hu: 26% 19% 39%  4%  1%  1%  1%  2%  7%\n","\u001b[1;36m[libx264 @ 0x57c4155ceec0] \u001b[0mi4 v,h,dc,ddl,ddr,vr,hd,vl,hu: 42% 25% 12%  4%  3%  3%  3%  4%  3%\n","\u001b[1;36m[libx264 @ 0x57c4155ceec0] \u001b[0mi8c dc,h,v,p: 29% 34% 35%  2%\n","\u001b[1;36m[libx264 @ 0x57c4155ceec0] \u001b[0mWeighted P-Frames: Y:1.3% UV:1.3%\n","\u001b[1;36m[libx264 @ 0x57c4155ceec0] \u001b[0mref P L0: 57.5% 12.4% 15.5% 14.5%  0.1%\n","\u001b[1;36m[libx264 @ 0x57c4155ceec0] \u001b[0mref B L0: 71.5% 21.0%  7.4%\n","\u001b[1;36m[libx264 @ 0x57c4155ceec0] \u001b[0mref B L1: 89.1% 10.9%\n","\u001b[1;36m[libx264 @ 0x57c4155ceec0] \u001b[0mkb/s:2152.33\n"]}]},{"cell_type":"markdown","metadata":{"id":"j7XAlRteC9qI"},"source":["Get the file content into data_url"]},{"cell_type":"code","metadata":{"id":"-ObuFb7dBwxK","executionInfo":{"status":"ok","timestamp":1692996345905,"user_tz":300,"elapsed":106,"user":{"displayName":"Joshua W","userId":"11234259929288430202"}}},"source":["rom IPython.display import HTML\n","from base64 import b64encode\n","mp4 = open('output.mp4','rb').read()\n","data_url = \"data:video/mp4;base64,\" + b64encode(mp4).decode()"],"execution_count":5,"outputs":[]},{"cell_type":"markdown","metadata":{"id":"kLvggIUZDC6R"},"source":["Display it with HTML"]},{"cell_type":"code","metadata":{"id":"RyXr0xsZB897","colab":{"base_uri":"https://localhost:8080/","height":561,"output_embedded_package_id":"103QOqQAb4PSQLa9v3j76LqY5C18YgrYc"},"executionInfo":{"status":"ok","timestamp":1692996349048,"user_tz":300,"elapsed":1320,"user":{"displayName":"Joshua W","userId":"11234259929288430202"}},"outputId":"5149e070-527b-4bee-f211-eed6e03d5a65"},"source":["HTML(\"\"\"\n","<video controls>\n","      <source src=\"%s\" type=\"video/mp4\">\n","</video>\n","\"\"\" % data_url)"],"execution_count":6,"outputs":[{"output_type":"display_data","data":{"text/plain":"Output hidden; open in https://colab.research.google.com to view."},"metadata":{}}]}]}